# Blender v3.1.2 OBJ File: 'peets_area.blend'
# www.blender.org
mtllib peets_area.mtl
o Cube
v -4.421788 0.000000 3.343206
v -4.421788 4.927929 3.343206
v -4.421788 0.000000 -3.343206
v -4.421788 4.927929 -3.343206
v 4.421788 0.000000 3.343206
v 4.421788 4.927929 3.343206
v 4.421788 0.000000 -3.343206
v 4.421788 4.927929 -3.343206
vt 0.377058 0.210502
vt 0.377058 0.001230
vt 0.661006 0.001231
vt 0.661006 0.210502
vt 0.001230 0.703722
vt 0.001230 0.494450
vt 0.376785 0.494450
vt 0.376785 0.703722
vt 0.661006 0.586057
vt 0.661006 0.795329
vt 0.377058 0.795329
vt 0.377058 0.586057
vt 0.376785 0.001231
vt 0.376785 0.210502
vt 0.001230 0.210502
vt 0.001230 0.001230
vn -1.0000 0.0000 0.0000
vn 0.0000 0.0000 -1.0000
vn 1.0000 0.0000 0.0000
vn 0.0000 0.0000 1.0000
vn 0.0000 1.0000 0.0000
vn 0.0000 -1.0000 0.0000
usemtl None
s off
f 1/1/1 2/2/1 4/3/1 3/4/1
f 3/5/2 4/6/2 8/7/2 7/8/2
f 7/9/3 8/10/3 6/11/3 5/12/3
f 5/13/4 6/14/4 2/15/4 1/16/4
f 8/7/5 4/6/5 2/15/5 6/14/5
f 3/4/6 7/9/6 5/12/6 1/1/6
o Cube.003_Cube.004
v 3.534873 3.651297 4.703527
v 3.534873 4.809473 3.141507
v 3.534873 3.560289 4.595392
v 3.534873 4.718464 3.033371
v 3.692880 3.651297 4.703527
v 3.692880 4.809473 3.141507
v 3.692880 3.560289 4.595392
v 3.692880 4.718464 3.033371
vt 0.020989 0.979011
vt 0.020989 0.979011
vt 0.020989 0.979011
vt 0.020989 0.979011
vt 0.020989 0.979011
vt 0.020989 0.979011
vt 0.020989 0.979011
vt 0.020989 0.979011
vn -1.0000 0.0000 0.0000
vn 0.0000 -0.8033 -0.5956
vn 1.0000 -0.0000 0.0000
vn 0.0000 0.8033 0.5956
vn 0.0000 -0.7651 0.6439
vn 0.0000 0.7651 -0.6439
usemtl None
s off
f 9/17/7 10/18/7 12/19/7 11/20/7
f 11/20/8 12/19/8 16/21/8 15/22/8
f 15/22/9 16/21/9 14/23/9 13/24/9
f 13/24/10 14/23/10 10/18/10 9/17/10
f 11/20/11 15/22/11 13/24/11 9/17/11
f 16/21/12 12/19/12 10/18/12 14/23/12
o Cube.004_Cube.005
v -4.300590 3.535646 5.127409
v -4.300590 3.672063 5.127409
v -4.300590 3.535646 1.104038
v -4.300590 3.672063 1.104038
v 4.300590 3.535646 5.127409
v 4.300590 3.672063 5.127409
v 4.300590 3.535646 1.104038
v 4.300590 3.672063 1.104038
vt 0.357408 0.991894
vt 0.357408 0.997454
vt 0.227883 0.997453
vt 0.227883 0.991894
vt 0.050765 0.709436
vt 0.072517 0.709436
vt 0.072518 0.986334
vt 0.050765 0.986334
vt 0.226652 0.714995
vt 0.226652 0.709436
vt 0.356177 0.709436
vt 0.356177 0.714995
vt 0.226742 0.986334
vt 0.202392 0.986334
vt 0.202391 0.709436
vt 0.226742 0.709436
vt 0.356792 0.714995
vt 0.356792 0.991894
vt 0.227267 0.991894
vt 0.227267 0.714995
vt 0.073034 0.986334
vt 0.073034 0.709436
vt 0.202558 0.709436
vt 0.202559 0.986334
vn -1.0000 0.0000 0.0000
vn 0.0000 0.0000 -1.0000
vn 1.0000 0.0000 0.0000
vn 0.0000 0.0000 1.0000
vn 0.0000 -1.0000 0.0000
vn 0.0000 1.0000 0.0000
usemtl None
s off
f 17/25/13 18/26/13 20/27/13 19/28/13
f 19/29/14 20/30/14 24/31/14 23/32/14
f 23/33/15 24/34/15 22/35/15 21/36/15
f 21/37/16 22/38/16 18/39/16 17/40/16
f 19/41/17 23/42/17 21/43/17 17/44/17
f 24/45/18 20/46/18 18/47/18 22/48/18
o Cube.002_Cube.006
v -3.765194 3.651297 4.703527
v -3.765194 4.809473 3.141507
v -3.765194 3.560289 4.595392
v -3.765194 4.718464 3.033371
v -3.607187 3.651297 4.703527
v -3.607187 4.809473 3.141507
v -3.607187 3.560289 4.595392
v -3.607187 4.718464 3.033371
vt 0.020989 0.966609
vt 0.020989 0.966609
vt 0.020989 0.966609
vt 0.020989 0.966609
vt 0.020989 0.966609
vt 0.020989 0.966609
vt 0.020989 0.966609
vt 0.020989 0.966609
vn -1.0000 0.0000 0.0000
vn 0.0000 -0.8033 -0.5956
vn 1.0000 0.0000 0.0000
vn 0.0000 0.8033 0.5956
vn 0.0000 -0.7651 0.6439
vn 0.0000 0.7651 -0.6439
usemtl None
s off
f 25/49/19 26/50/19 28/51/19 27/52/19
f 27/52/20 28/51/20 32/53/20 31/54/20
f 31/54/21 32/53/21 30/55/21 29/56/21
f 29/56/22 30/55/22 26/50/22 25/49/22
f 27/52/23 31/54/23 29/56/23 25/49/23
f 32/53/24 28/51/24 26/50/24 30/55/24
o Cube.005_Cube.007
v -1.477213 3.911146 4.561761
v -0.102657 6.701572 4.561761
v -1.477213 3.911146 4.243141
v -0.102657 6.701572 4.243141
v -1.421838 3.840147 4.561761
v 1.619336 4.493708 4.561761
v -1.421838 3.840147 4.243141
v 1.619336 4.493708 4.243141
vt 0.953332 0.942313
vt 0.764346 0.942313
vt 0.764346 0.922955
vt 0.953332 0.922955
vt 0.679342 0.446813
vt 0.974385 0.304035
vt 0.974385 0.599078
vt 0.679342 0.456300
vt 0.405247 0.922955
vt 0.594232 0.922955
vt 0.594232 0.942313
vt 0.405247 0.942313
vt 0.679342 0.151209
vt 0.974385 0.008431
vt 0.974385 0.303474
vt 0.679342 0.160696
vt 0.399776 0.922955
vt 0.399776 0.942313
vn -0.8971 0.4419 0.0000
vn 0.0000 0.0000 -1.0000
vn 0.2101 -0.9777 0.0000
vn 0.0000 0.0000 1.0000
vn -0.7885 -0.6150 0.0000
vn 0.7885 0.6150 0.0000
usemtl None
s off
f 33/57/25 34/58/25 36/59/25 35/60/25
f 35/61/26 36/62/26 40/63/26 39/64/26
f 39/65/27 40/66/27 38/67/27 37/68/27
f 37/69/28 38/70/28 34/71/28 33/72/28
f 35/73/29 39/65/29 37/68/29 33/74/29
f 40/66/30 36/59/30 34/58/30 38/67/30
o Cube.006_Cube.008
v -1.112808 3.618501 4.474171
v -1.112808 4.058578 4.474171
v -1.112808 3.618501 4.330733
v -1.112808 4.058578 4.330733
v -0.969370 3.618501 4.474171
v -0.969370 4.058578 4.474171
v -0.969370 3.618501 4.330733
v -0.969370 4.058578 4.330733
vt 0.016339 0.974360
vt 0.016339 0.974360
vt 0.016339 0.974360
vt 0.016339 0.974360
vt 0.016339 0.974360
vt 0.016339 0.974360
vt 0.016339 0.974360
vt 0.016339 0.974360
vn -1.0000 0.0000 0.0000
vn 0.0000 0.0000 -1.0000
vn 1.0000 0.0000 0.0000
vn 0.0000 0.0000 1.0000
vn 0.0000 -1.0000 0.0000
vn 0.0000 1.0000 0.0000
usemtl None
s off
f 41/75/31 42/76/31 44/77/31 43/78/31
f 43/78/32 44/77/32 48/79/32 47/80/32
f 47/80/33 48/79/33 46/81/33 45/82/33
f 45/82/34 46/81/34 42/76/34 41/75/34
f 43/78/35 47/80/35 45/82/35 41/75/35
f 48/79/36 44/77/36 42/76/36 46/81/36
o Cube.007_Cube.009
v 1.176215 3.559382 4.474171
v 1.176215 4.649148 4.474171
v 1.176215 3.559382 4.330733
v 1.176215 4.649148 4.330733
v 1.319652 3.559382 4.474171
v 1.319652 4.649148 4.474171
v 1.319652 3.559382 4.330733
v 1.319652 4.649148 4.330733
vt 0.028740 0.971260
vt 0.028740 0.971260
vt 0.028740 0.971260
vt 0.028740 0.971260
vt 0.028740 0.971260
vt 0.028740 0.971260
vt 0.028740 0.971260
vt 0.028740 0.971260
vn -1.0000 0.0000 0.0000
vn 0.0000 0.0000 -1.0000
vn 1.0000 0.0000 0.0000
vn 0.0000 0.0000 1.0000
vn 0.0000 -1.0000 0.0000
vn 0.0000 1.0000 0.0000
usemtl None
s off
f 49/83/37 50/84/37 52/85/37 51/86/37
f 51/86/38 52/85/38 56/87/38 55/88/38
f 55/88/39 56/87/39 54/89/39 53/90/39
f 53/90/40 54/89/40 50/84/40 49/83/40
f 51/86/41 55/88/41 53/90/41 49/83/41
f 56/87/42 52/85/42 50/84/42 54/89/42
