# UnionBytes Painter Early Access v0,405 (2022-04-21)
# File: Unnamed.dat
# www.UnionBytes.de
o Unnamed
v -8.703431 0.000000 5.007568
v -8.703431 17.406860 5.007568
v -8.703431 17.406860 -5.007568
v -8.703431 0.000000 -5.007568
v 8.703431 17.406860 -5.007568
v 8.703431 0.000000 -5.007568
v 8.703431 17.406860 5.007568
v 8.703431 0.000000 5.007568
vt 0.335938 1.000000
vt 0.335938 0.664063
vt 0.523438 0.664063
vt 0.523438 1.000000
vt 0.335938 0.523438
vt 0.335938 0.859375
vt 0.000000 0.859375
vt 0.000000 0.523438
vt 0.523438 0.000000
vt 0.523438 0.335938
vt 0.335938 0.335938
vt 0.335938 0.000000
vt 0.000000 0.335938
vt 0.000000 0.000000
vn -1.000000 0.000000 0.000000
vn 0.000000 0.000000 -1.000000
vn 1.000000 0.000000 0.000000
vn 0.000000 0.000000 1.000000
vn 0.000000 -1.000000 0.000000
vn 0.000000 1.000000 0.000000
s off
f 1/1/1 2/2/1 3/3/1 4/4/1
f 4/5/2 3/6/2 5/7/2 6/8/2
f 6/9/3 5/10/3 7/11/3 8/12/3
f 8/13/4 7/14/4 2/12/4 1/11/4
f 4/5/5 6/8/5 8/13/5 1/11/5
f 5/10/6 3/3/6 2/2/6 7/11/6
